<svg xmlns="http://www.w3.org/2000/svg" viewBox="0 0 24.26 18.99"><defs><style>.cls-1{fill:#f3e4b2;}</style></defs><title>calzone</title><g id="Layer_2" data-name="Layer 2"><g id="Layer_1-2" data-name="Layer 1"><path class="cls-1" d="M1.67,17.88a1.78,1.78,0,0,0,3.18.24A2.31,2.31,0,0,0,7.5,18a6.67,6.67,0,0,1,1.15-1,5.08,5.08,0,0,1,1.06-.27c1.55-.38,2.48-1.94,3.84-2.77.91-.56,2-.79,2.94-1.28a2.73,2.73,0,0,0,1.68-2.5A2,2,0,0,0,20.93,8a1.48,1.48,0,0,0,1.76-.67c.39-.56.57-1.25.94-1.82.27-.42.67-.83.63-1.33s-.52-.84-1-1.11A19.58,19.58,0,0,0,17.47.25C12.71-.83,7.85,1.78,4.25,5.08A14.53,14.53,0,0,0,.75,9.47a6.8,6.8,0,0,0-.31,5.47,22.5,22.5,0,0,0,.9,2.51"/></g></g></svg>