<svg xmlns="http://www.w3.org/2000/svg" viewBox="0 0 27.1 21.51"><defs><style>.cls-1{fill:#f3e4b2;}</style></defs><title>dessert</title><g id="Layer_2" data-name="Layer 2"><g id="Layer_1-2" data-name="Layer 1"><path class="cls-1" d="M3.77,8.18a1.91,1.91,0,0,1,.16.23l.14.25c.13.24.28.52.37.52h0a.55.55,0,0,0,.21-.13l.18-.13c.65-.42,1.29.07,1.85.5s.95.72,1.32.43a2,2,0,0,0,.24-.24,1.35,1.35,0,0,1,.66-.5c.46-.1.83.4,1.12.8a2,2,0,0,0,.47.53c.27.15.58-.09.94-.38a1.67,1.67,0,0,1,1.27-.53,2,2,0,0,1,.93.66,2,2,0,0,0,.57.47c.43.17.88-.29,1.36-.77s1.08-1.09,1.73-1a2,2,0,0,1,.81.39,1.46,1.46,0,0,0,.64.31,1.57,1.57,0,0,0,.9-.49c.14-.12.28-.23.43-.33a1.1,1.1,0,0,1,1.48.05,3.06,3.06,0,0,1,.6-.88V3.27C22.11,1.46,18,0,12.93,0S3.74,1.46,3.74,3.27a1.2,1.2,0,0,0,0,.24Z"/><path class="cls-1" d="M22.11,11.93V9.79a2.75,2.75,0,0,0-.17.46c-.06.24-.19.39-.33.41s-.28-.11-.35-.33c-.15-.43-.6-.41-.95-.17-.13.09-.25.19-.38.3a2,2,0,0,1-1.24.61,1.87,1.87,0,0,1-.88-.4,1.65,1.65,0,0,0-.6-.31c-.34,0-.68.23-1,.57l-.25.25c-.46.47-1,1-1.54,1a1,1,0,0,1-.35-.07,2.48,2.48,0,0,1-.79-.62,1.55,1.55,0,0,0-.63-.49c-.27-.05-.56.18-.88.43s-.93.73-1.47.43a2.55,2.55,0,0,1-.72-.76l0,0c-.24-.33-.39-.53-.54-.49s-.21.15-.34.29a2.64,2.64,0,0,1-.35.35l0,0a1,1,0,0,1-.89.15,3.45,3.45,0,0,1-1-.59c-.48-.36-.93-.71-1.3-.47L5,10.42a.88.88,0,0,1-.51.25h0a.89.89,0,0,1-.67-.49v2.17C1.59,13.16,0,14.39,0,16.17c0,4.22,8.86,5.34,13.55,5.34S27.1,20.4,27.1,16.17C27.1,14.07,24.9,12.74,22.11,11.93ZM13.55,20C5.29,20,.79,17.49.79,16.17c0-.62,1-1.53,3-2.31v.94a1.2,1.2,0,0,0,0,.24c0,1.81,4.11,3.27,9.19,3.27s9.19-1.46,9.19-3.27V13.44c2.75.85,4.2,2,4.2,2.73C26.31,17.49,21.81,20,13.55,20Z"/></g></g></svg>