<svg xmlns="http://www.w3.org/2000/svg" viewBox="0 0 18.09 22.64"><defs><style>.cls-1{fill:#f3e4b2;}</style></defs><title>drinks</title><g id="Layer_2" data-name="Layer 2"><g id="Layer_1-2" data-name="Layer 1"><path class="cls-1" d="M18.09,3.39h0s0,0,0-.06C18.09,1.15,13.54,0,9,0S0,1.15,0,3.34a1.53,1.53,0,0,0,0,.26H0L1.51,20.88h0c.39,1,3.59,1.77,7.48,1.77,4.15,0,7.51-.88,7.51-2h0L18.08,3.56s0-.08,0-.11ZM9,1.21c5.1,0,7.9,1.39,7.91,2.12v0c0,.72-2.83,2.11-7.91,2.11S1.13,4.06,1.13,3.34,3.92,1.21,9,1.21ZM16.38,10c-.71-.9-3.73-1.57-7.36-1.57S2.44,9,1.69,9.93L1.27,5.13C2.94,6.14,6,6.67,9,6.67s6.09-.52,7.76-1.53Z"/></g></g></svg>