<svg xmlns="http://www.w3.org/2000/svg" viewBox="0 0 21.08 25.25"><defs><style>.cls-1{fill:#f3e4b2;}</style></defs><title>pizza</title><g id="Layer_2" data-name="Layer 2"><g id="Layer_1-2" data-name="Layer 1"><path class="cls-1" d="M21.08,0l-9.7,7.67L3.07,14.24l-.42-.29A1.69,1.69,0,1,0,.73,16.72l11.89,8.22a1.69,1.69,0,1,0,1.92-2.78l-.42-.29,3.21-10.1ZM7.92,16a1.57,1.57,0,1,1,1.57-1.57A1.57,1.57,0,0,1,7.92,16Zm3.14-5.55A1.57,1.57,0,1,1,12.62,12,1.57,1.57,0,0,1,11.05,10.41Zm2.29,6.27a1.57,1.57,0,1,1,1.57-1.57A1.57,1.57,0,0,1,13.35,16.68Zm1.57-9.17a1.57,1.57,0,1,1,1.57,1.57A1.57,1.57,0,0,1,14.91,7.51Z"/></g></g></svg>