<svg xmlns="http://www.w3.org/2000/svg" viewBox="0 0 264.8 83.26"><defs><style>.cls-1{fill:#ff9012;}</style></defs><title>point3</title><g id="Layer_2" data-name="Layer 2"><g id="Layer_1-2" data-name="Layer 1"><path class="cls-1" d="M122.9,77.42s6.77-21.27,13.29-37.11c0,0-21.62-.23-43,.84,0,0,6.54,4.51,8.78,6.61,0,0-21.22,15.34-46.94-2.19,0,0,2.5-7.5,3.63-9.65a48.33,48.33,0,0,1-17.38-26S30.62,23.33,27.14,29c0,0-21.39-3.1-27.14-3.38,0,0,1.38,19.5,21.23,38.34,0,0,6-.82,8.23-.8,0,0,17.55,18.58,44.6,20,0,0,24.21,1.86,45.85-12.72C119.92,70.46,121.71,74.29,122.9,77.42Z"/><path class="cls-1" d="M264.8,42s-5.42,21.65-8.2,38.55c0,0-18.51-11.17-36.15-23.32,0,0,7.94-.4,10.95-1,0,0-10-24.21-41.08-22.81,0,0-1.81,7.69-2,10.12a48.33,48.33,0,0,0-28.46,13s-2-17-2-23.68c0,0-19.83-8.61-24.87-11.39,0,0,11.42-15.86,38.21-21.45,0,0,4.67,3.85,6.58,5,0,0,24.7-6.58,48.47,6.4,0,0,21.58,11.15,32.32,34.92C258.6,46.33,262.13,44,264.8,42Z"/></g></g></svg>