<svg xmlns="http://www.w3.org/2000/svg" viewBox="0 0 28.13 23.52"><defs><style>.cls-1{fill:#f3e4b2;}</style></defs><title>salad</title><g id="Layer_2" data-name="Layer 2"><g id="Layer_1-2" data-name="Layer 1"><path class="cls-1" d="M26.8,12.83H25.7a3.15,3.15,0,0,0-.85-2.46c-.55.77-1.54-.66-2.36-.41-.37.11-.68.57-1,.45s-.47-.69-.8-.9a.47.47,0,0,0-.19-.07l.2-.24L22,7.62c.44-.53.91-1,1.37-1.54a9.63,9.63,0,0,0,1.22-1.7,17,17,0,0,0,1-2A11.81,11.81,0,0,0,26.2.18L26,0a8.38,8.38,0,0,0-1.73,1.17,14.17,14.17,0,0,0-1.46,1.45,9.69,9.69,0,0,0-1.2,1.72c-.34.63-.68,1.27-1,1.87L19.5,8,18.44,9.88l-.19.34a8.72,8.72,0,0,0-.57-.68c-1-.81-2.19,1.15-3.34.82-.6-.17-1-.91-1.51-1.23-1-.58-2.11.34-2.95,1.2a1.87,1.87,0,0,0-3.36-.63c-.25.41-.42,1-.82,1.1s-.64-.07-1-.14A1.69,1.69,0,0,0,2.9,11.79a2.35,2.35,0,0,0-.14,1H1.32A1.48,1.48,0,0,0,0,14.42,1.48,1.48,0,0,0,1.32,16h.23c1.12,4.28,6.29,7.51,12.51,7.51S25.45,20.29,26.57,16h.23a1.48,1.48,0,0,0,1.32-1.59A1.48,1.48,0,0,0,26.8,12.83Z"/></g></g></svg>