<svg xmlns="http://www.w3.org/2000/svg" viewBox="0 0 19.55 20.6"><defs><style>.cls-1{fill:#f3e4b2;}</style></defs><title>sides</title><g id="Layer_2" data-name="Layer 2"><g id="Layer_1-2" data-name="Layer 1"><path class="cls-1" d="M18.75,2.65C17.41,1.34,15.84-.06,14,0a6.44,6.44,0,0,0-2,.48,12.43,12.43,0,0,0-3.84,2,5.33,5.33,0,0,0-2,3.74,3.59,3.59,0,0,1-.08.92c-.21.69-1,1.08-1.27,1.72A1.59,1.59,0,0,0,6,11.06L2.38,15.68S1.25,17,.48,17c-.46.77-.81,2,0,2.38a4.12,4.12,0,0,0,1.06.15c.35.06.72.42.56.74a1.58,1.58,0,0,0,2.43-.93,7.07,7.07,0,0,0,0-1c0-1.53,1.31-2.69,2.5-3.65a2,2,0,0,1,.91-.5,2.43,2.43,0,0,1,1.18.29,5.19,5.19,0,0,0,6.49-2.91,3.22,3.22,0,0,1,.57-1.19c.32-.33.81-.45,1.15-.76.91-.82.38-2.39.92-3.49.39-.8,1.36-1.39,1.28-2.28A2.18,2.18,0,0,0,18.75,2.65Z"/></g></g></svg>