<svg xmlns="http://www.w3.org/2000/svg" viewBox="0 0 264.06 264.06"><defs><style>.cls-1{fill:#b0343d;}.cls-2{fill:#f3e4b2;}.cls-3{fill:#ff9012;}.cls-4{fill:#bc7229;}.cls-5{fill:#d9272e;}</style></defs><title>assurance</title><g id="Layer_2" data-name="Layer 2"><g id="Layer_1-2" data-name="Layer 1"><circle class="cls-1" cx="132.03" cy="132.03" r="132.03"/><circle class="cls-2" cx="132.45" cy="137.28" r="88.92"/><path class="cls-3" d="M132,189.66a52.91,52.91,0,0,0,51.14-39.36L97.88,177.15A52.67,52.67,0,0,0,132,189.66Z"/><path class="cls-3" d="M132,50a86.77,86.77,0,1,0,86.77,86.77A86.87,86.87,0,0,0,132,50Zm0,171.46a84.68,84.68,0,1,1,84.68-84.68A84.78,84.78,0,0,1,132,221.45Z"/><path class="cls-3" d="M236.41,141.08c-1-1.34-3.52-5.6-7.6-12.3a61.42,61.42,0,0,1-5.9-13,6.52,6.52,0,0,1-.13-.71,61.71,61.71,0,0,1-.29-14c.76-7.8,1.21-12.74,1.51-14.38s1.95-14.32-3.4-21-18.09-7.92-19.75-8-6.57-.74-14.35-1.73a61.34,61.34,0,0,1-13.88-3.52,6.33,6.33,0,0,1-.58-.31,61.83,61.83,0,0,1-11.13-8.5c-5.62-5.46-9.21-8.89-10.3-10.14S140.61,23,132,23s-17.48,9.21-18.57,10.45-4.68,4.68-10.3,10.14a61.31,61.31,0,0,1-11.39,8.65,5.72,5.72,0,0,1-.66.29A61.75,61.75,0,0,1,77.57,56c-7.77,1-12.69,1.65-14.35,1.73s-14.4,1.29-19.75,8-3.7,19.4-3.4,21,.74,6.58,1.51,14.37A61.81,61.81,0,0,1,41.28,115h0l0,.34a5.89,5.89,0,0,1-.2.73,61.72,61.72,0,0,1-5.79,12.69c-4.07,6.69-6.62,11-7.6,12.3s-8,12.06-6.06,20.43,12.86,15,14.32,15.78,5.6,3.52,12.18,7.78a61.25,61.25,0,0,1,11,9.18,6.63,6.63,0,0,1,.44.6,61.87,61.87,0,0,1,6.31,12.44c2.69,7.36,4.43,12,4.88,13.61s4.46,13.75,12.19,17.47,19.74-.71,21.26-1.36,6.25-2.18,13.68-4.67a61.2,61.2,0,0,1,14-2.85,6.16,6.16,0,0,1,.75,0,61.75,61.75,0,0,1,13.66,2.82c7.43,2.48,12.15,4,13.68,4.67s13.53,5.09,21.26,1.36,11.75-15.88,12.2-17.48,2.18-6.25,4.88-13.6a61.26,61.26,0,0,1,6.51-12.73,5.69,5.69,0,0,1,.48-.56A61.73,61.73,0,0,1,216,185.06c6.57-4.26,10.72-7,12.18-7.79s12.41-7.41,14.32-15.77S237.38,142.42,236.41,141.08ZM132,224a87.24,87.24,0,1,1,87.24-87.24A87.34,87.34,0,0,1,132,224Z"/><path class="cls-3" d="M132,83.87a52.9,52.9,0,0,0-50.92,38.6l84.48-26.59A52.68,52.68,0,0,0,132,83.87Z"/><path class="cls-3" d="M132,53a83.75,83.75,0,1,0,83.74,83.75A83.84,83.84,0,0,0,132,53Zm0,165.19a81.45,81.45,0,1,1,81.45-81.45A81.45,81.45,0,0,1,132,218.22Z"/><path class="cls-4" d="M56.4,136a.93.93,0,0,1-.63,1.16.89.89,0,0,1-.27,0,.93.93,0,0,1-.27-1.83h0A.94.94,0,0,1,56.4,136Zm35-11.79h0a.94.94,0,0,0,.32,1.82A1,1,0,0,0,92,126a.94.94,0,0,0-.62-1.77ZM105,120h0a.93.93,0,0,0-.62,1.16A.94.94,0,1,0,105,120Zm-9.06,2.8h0a.94.94,0,1,0,1.18.61A.93.93,0,0,0,95.92,122.84Zm13.58-4.19h0a.94.94,0,0,0,.28,1.83.91.91,0,0,0,.27,0,.94.94,0,0,0-.54-1.79Zm4.52-1.4h0a.93.93,0,0,0-.62,1.17.94.94,0,0,0,.9.66,1,1,0,0,0,.27,0,.94.94,0,1,0-.54-1.79Zm4.51-1.39h0a.94.94,0,0,0,.29,1.83,1,1,0,0,0,.28,0,.94.94,0,0,0-.57-1.79Zm4.54-1.4h0a.94.94,0,0,0,.28,1.83,1,1,0,0,0,.27,0,.94.94,0,0,0-.54-1.79ZM64.24,132.62h0a.94.94,0,0,0,.32,1.82.92.92,0,0,0,.31-.05.94.94,0,1,0-.62-1.77ZM59.76,134h0a.94.94,0,0,0,.27,1.83,1,1,0,0,0,.27,0,.94.94,0,1,0-.54-1.79Zm9-2.79h0a.94.94,0,0,0,.28,1.83.94.94,0,1,0-.27-1.83Zm4.47-1.38h0a.93.93,0,0,0,.33,1.81.9.9,0,0,0,.33-.06.94.94,0,1,0-.65-1.76Zm9.06-2.8h0a.94.94,0,0,0,.32,1.82,1,1,0,0,0,.31-.05.94.94,0,0,0-.62-1.77Zm4.56-1.41h0a.94.94,0,0,0,.28,1.83,1,1,0,0,0,.27,0,.94.94,0,1,0-.54-1.79Zm-9,2.79h0a.94.94,0,0,0,.28,1.83,1,1,0,0,0,.27,0,.94.94,0,1,0-.54-1.79Zm22.62-7h0a.93.93,0,0,0-.62,1.16.94.94,0,0,0,.9.67.91.91,0,0,0,.27,0,.94.94,0,1,0-.54-1.79Zm72.38-22.35h0a.94.94,0,0,0,.28,1.83,1,1,0,0,0,.27,0,.94.94,0,1,0-.54-1.79Zm-4.54,1.4h0a.94.94,0,1,0,1.18.61A.94.94,0,0,0,168.3,100.49Zm9.06-2.8h0a.94.94,0,0,0,.28,1.83.89.89,0,0,0,.27,0,.94.94,0,1,0-.54-1.79Zm9-2.8h0a.94.94,0,0,0,.28,1.83,1,1,0,0,0,.27,0,.94.94,0,0,0-.54-1.8Zm4.51-1.39h0a.94.94,0,0,0,.29,1.83.9.9,0,0,0,.28,0,.94.94,0,0,0-.56-1.79Zm-27.14,8.38h0a.94.94,0,0,0,.29,1.83,1,1,0,0,0,.28,0,.94.94,0,0,0-.57-1.79Zm18.11-5.59h0a.94.94,0,1,0,1.17.62A.93.93,0,0,0,181.89,96.3Zm-22.62,7h0a.94.94,0,1,0,1.17.62A.94.94,0,0,0,159.28,103.28Zm-31.66,9.78h0a.94.94,0,1,0,1.17.63A.93.93,0,0,0,127.6,113.06Zm9-2.79h0a.94.94,0,0,0,.27,1.83.91.91,0,0,0,.27,0,.94.94,0,0,0-.54-1.79Zm-4.52,1.4h0a.94.94,0,0,0,.28,1.83.88.88,0,0,0,.27,0,.94.94,0,0,0-.54-1.79Zm9-2.79h0a.94.94,0,0,0,.29,1.83,1,1,0,0,0,.28,0,.94.94,0,0,0-.56-1.79Zm13.58-4.19h0a.94.94,0,0,0,.28,1.83.9.9,0,0,0,.27,0,.94.94,0,1,0-.54-1.79Zm-9,2.79h0a.94.94,0,1,0,1.18.62A.93.93,0,0,0,145.7,107.47Zm4.52-1.4h0a.94.94,0,0,0,.27,1.83.92.92,0,0,0,.27,0,.94.94,0,0,0-.54-1.79Zm46.4-13.34a.94.94,0,0,0-1.17-.63h0a.94.94,0,0,0,.27,1.83,1,1,0,0,0,.27,0A.94.94,0,0,0,196.63,92.73ZM69.5,179.06a.94.94,0,0,1-.63,1.17,1,1,0,0,1-.27,0,.94.94,0,0,1-.27-1.83h0A.94.94,0,0,1,69.5,179.06Zm48.6-16h0a.93.93,0,0,0-.62,1.16.94.94,0,0,0,.9.67,1,1,0,0,0,.27,0,.94.94,0,0,0-.54-1.79Zm-4.52,1.4h0a.93.93,0,0,0,.28,1.83.9.9,0,0,0,.27,0,.94.94,0,1,0-.54-1.79Zm-4.54,1.4h0a.93.93,0,0,0,.29,1.83,1,1,0,0,0,.28,0,.94.94,0,1,0-.57-1.78Zm22.62-7h0a.94.94,0,0,0,.29,1.83.94.94,0,0,0,.28,0,.94.94,0,0,0-.56-1.79Zm-27.17,8.39h0a.94.94,0,1,0,1.2.57A.93.93,0,0,0,104.48,167.27Zm18.14-5.6h0a.94.94,0,0,0,.28,1.83,1,1,0,0,0,.27,0,.94.94,0,1,0-.54-1.79Zm4.52-1.4h0a.93.93,0,0,0-.62,1.16.94.94,0,0,0,.9.67.94.94,0,0,0,.9-1.21A.94.94,0,0,0,127.15,160.28Zm-49.8,15.37h0a.94.94,0,1,0,1.2.57A.94.94,0,0,0,77.34,175.65Zm58.85-18.17h0a.94.94,0,1,0,1.17.63A.93.93,0,0,0,136.19,157.48ZM72.86,177h0a.94.94,0,1,0,1.17.63A.93.93,0,0,0,72.85,177Zm9-2.79h0a.94.94,0,0,0,.27,1.83.92.92,0,0,0,.27,0,.94.94,0,0,0-.54-1.79Zm4.47-1.38h0a.94.94,0,1,0,1.21.55A.94.94,0,0,0,86.37,172.87ZM100,168.66h0a.93.93,0,0,0-.62,1.16.94.94,0,0,0,.9.67,1,1,0,0,0,.27,0,.94.94,0,1,0-.54-1.79Zm-4.56,1.41h0a.94.94,0,0,0,.32,1.82,1,1,0,0,0,.31-.05.94.94,0,1,0-.62-1.77ZM91,171.45h0a.93.93,0,0,0-.62,1.16.94.94,0,0,0,.9.67,1,1,0,0,0,.27,0,.94.94,0,1,0-.54-1.79Zm67.86-20.95h0a.94.94,0,1,0,1.17.62A.93.93,0,0,0,158.81,150.5Zm18.08-5.58h0a.94.94,0,0,0,.29,1.83.92.92,0,0,0,.28,0,.94.94,0,1,0-.56-1.79Zm9.06-2.8h0a.94.94,0,0,0,.28,1.83,1,1,0,0,0,.27,0,.94.94,0,1,0-.54-1.79Zm-4.54,1.4h0a.94.94,0,0,0,.29,1.83.94.94,0,0,0,.89-1.22A.93.93,0,0,0,181.42,143.52Zm9.06-2.8h0a.94.94,0,0,0,.28,1.83.89.89,0,0,0,.27,0,.94.94,0,1,0-.54-1.79Zm-49.76,15.36h0a.94.94,0,0,0,.28,1.83.88.88,0,0,0,.27,0,.94.94,0,0,0-.54-1.79ZM204,136.54h0a.94.94,0,0,0,.29,1.83,1,1,0,0,0,.28,0,.94.94,0,1,0-.57-1.78Zm-4.51,1.39h0a.93.93,0,0,0,.28,1.83,1,1,0,0,0,.27,0,.94.94,0,1,0-.54-1.79Zm-4.52,1.4h0a.93.93,0,0,0,.28,1.83.91.91,0,0,0,.27,0,.94.94,0,1,0-.54-1.79Zm-45.24,14h0a.94.94,0,0,0,.28,1.83,1,1,0,0,0,.27,0,.94.94,0,1,0-.54-1.79Zm-4.52,1.4h0a.93.93,0,0,0,.28,1.83.88.88,0,0,0,.27,0,.94.94,0,0,0-.54-1.79Zm9-2.79h0a.94.94,0,0,0,.29,1.83.91.91,0,0,0,.28,0,.94.94,0,0,0-.56-1.78Zm18.11-5.59h0a.94.94,0,0,0,.28,1.83.89.89,0,0,0,.27,0,.94.94,0,1,0-.54-1.79Zm-4.52,1.4h0a.94.94,0,0,0,.28,1.83,1,1,0,0,0,.27,0,.94.94,0,0,0-.54-1.79Zm-4.52,1.4h0a.94.94,0,0,0,.28,1.83,1,1,0,0,0,.27,0,.94.94,0,0,0-.54-1.8Zm46.4-13.34a.94.94,0,0,0-1.16-.63h0a.94.94,0,0,0,.27,1.83,1,1,0,0,0,.27,0A.94.94,0,0,0,209.74,135.76Z"/><path class="cls-4" d="M66,127A66.82,66.82,0,0,1,86.13,88.28L85,86.77a68.69,68.69,0,0,0-21,40.88Z"/><path class="cls-4" d="M198.46,146.4a66.8,66.8,0,0,1-19.22,37.94l1.21,1.43a68.63,68.63,0,0,0,20-39.89Z"/><path class="cls-4" d="M206.42,144.26a74.72,74.72,0,0,1-22.18,46l1.21,1.43a76.56,76.56,0,0,0,22.88-47.92Z"/><path class="cls-4" d="M74.21,124.5a59,59,0,0,1,16.59-30L89.66,93a60.79,60.79,0,0,0-17.49,32.14Z"/><path class="cls-4" d="M189.67,148.77a58.94,58.94,0,0,1-15.74,29.33l1.22,1.44a60.79,60.79,0,0,0,16.52-31.3Z"/><path class="cls-4" d="M55.45,130.32l1.92-.6a74.74,74.74,0,0,1,23.83-48L80.07,80.2A76.6,76.6,0,0,0,55.45,130.32Z"/><path class="cls-1" d="M89.72,204.86l-3.13-2.34,2.14-4-3.8-2.84-3.21,3.18-2.85-2.12,17.88-17.37,4.54,3.39Zm-2.4-11.54,3,2.23,6-11.09Z"/><path class="cls-1" d="M109.36,186.78c3.42,1.55,4.26,4.4,2.63,8l-.32.7L108.34,194l.42-.93c.72-1.6.36-2.5-.76-3s-2-.19-2.76,1.41c-2.09,4.61,4.4,8.6,1.5,15-1.62,3.59-4.35,4.82-7.81,3.25s-4.32-4.43-2.7-8l.63-1.38,3.33,1.51-.73,1.6c-.73,1.6-.28,2.5.84,3s2.09.25,2.81-1.35c2.09-4.61-4.4-8.6-1.5-15C103.24,186.48,105.93,185.23,109.36,186.78Z"/><path class="cls-1" d="M120,190.4c3.67.82,5.06,3.44,4.2,7.29l-.17.75-3.57-.8.22-1c.38-1.72-.16-2.52-1.36-2.79s-2,.23-2.42,1.94c-1.11,4.94,6.06,7.52,4.52,14.38-.86,3.84-3.27,5.61-7,4.78s-5.13-3.46-4.27-7.3l.33-1.48,3.57.8-.39,1.71c-.38,1.72.23,2.5,1.43,2.77s2.09-.18,2.48-1.89c1.11-4.94-6.06-7.52-4.52-14.39C113.95,191.34,116.33,189.57,120,190.4Z"/><path class="cls-1" d="M129.5,191.93l-.2,19c0,1.76.75,2.4,2,2.41s2-.61,2-2.37l.2-19,3.66,0-.2,18.74c0,3.94-2,6.17-5.83,6.13s-5.74-2.31-5.7-6.25l.2-18.74Z"/><path class="cls-1" d="M150.86,214.45a7.6,7.6,0,0,1-1-2.89l-.79-3.79c-.47-2.23-1.4-2.9-3.12-2.54l-1.31.27,2.06,9.81-3.79.79L137.89,192l5.71-1.2c3.92-.83,6,.65,6.77,4.36l.4,1.89c.52,2.48.07,4.26-1.45,5.41,2.06.39,3.06,2.09,3.59,4.6l.78,3.72a7.22,7.22,0,0,0,1,2.84Zm-8.46-19.78,1.55,7.4,1.48-.31c1.41-.3,2.14-1.1,1.74-3l-.5-2.37c-.36-1.72-1.11-2.36-2.45-2.07Z"/><path class="cls-1" d="M157.6,197.18l4.85-2.16,1.43,3.21L159,200.39,162,207l6.1-2.72,1.43,3.21-9.64,4.29-10-22.49,9.64-4.29,1.43,3.21-6.1,2.72Z"/><path class="cls-1" d="M159.92,184.79l4.94-3.61c3.12-2.29,5.92-1.67,8.24,1.5l7.35,10c2.33,3.18,2.06,6-1.06,8.31l-4.94,3.61Zm5.2.55,10.38,14.19,1.76-1.29c1-.73,1.22-1.67.18-3.09l-7.56-10.33c-1-1.42-2-1.49-3-.77Z"/><path class="cls-5" d="M78.71,143.92v4.62c0,5.68-2.74,9.63-8.32,11.35l-2.64.81V174l-5.58,1.73V140.25l8.22-2.54C76,136,78.71,138.23,78.71,143.92Zm-11-.32v12l2.64-.81c1.78-.55,2.74-1.66,2.74-4.2v-5.33c0-2.54-1-3-2.74-2.5Z"/><path class="cls-5" d="M93,166.25c-.3-.82-.51-1.31-.51-4.21v-5.58c0-3.3-1.11-4.17-3.65-3.39l-1.93.6v14.46l-5.58,1.72V134.34l8.42-2.6c5.79-1.79,8.27.13,8.27,5.61v2.79c0,3.65-1.17,6.4-3.65,8.34,2.79.3,3.7,2.71,3.7,6.41v5.48a9.19,9.19,0,0,0,.61,4.13Zm-6.09-28.56v10.91l2.18-.68c2.08-.64,3.35-1.95,3.35-4.79v-3.5c0-2.54-.86-3.39-2.84-2.78Z"/><path class="cls-5" d="M107.28,141.27l7.66-2.37V144l-7.66,2.37v10.4l9.64-3v5.07l-15.22,4.71V128l15.22-4.71v5.07l-9.64,3Z"/><path class="cls-5" d="M132.19,143.82l3.8-26.39,7.76-2.4v35.52l-5.28,1.63V126.7l-3.86,26.66L129.35,155l-4.16-23.83v25.11l-4.87,1.51V122.27l7.76-2.4Z"/><path class="cls-5" d="M147.82,113.77,153.4,112v35.52l-5.58,1.73Z"/><path class="cls-5" d="M162.79,109.14v27.4c0,2.54,1.12,3.11,2.89,2.56s2.89-1.81,2.89-4.34v-27.4l5.28-1.63v27c0,5.68-2.84,9.81-8.32,11.5s-8.32-.67-8.32-6.36v-27Z"/><path class="cls-5" d="M189.47,126.1l3.81-26.39,7.76-2.4v35.52l-5.28,1.63V109l-3.86,26.66-5.28,1.63-4.16-23.83v25.11l-4.87,1.51V104.56l7.76-2.4Z"/><path class="cls-1" d="M84.87,79.84c-2.29-3.26-1.88-6.33,1.27-8.54S92.31,69.75,94.6,73L102,83.61a7.33,7.33,0,0,1,1.39,3.28c.41.28.69.17,1.21-.2l.29-.2,2,2.85-.44.31a3.43,3.43,0,0,1-3.75.54,8.14,8.14,0,0,1-2,2c-3.15,2.21-6.17,1.55-8.46-1.71Zm10.79,8.56c1,1.46,2.05,1.56,3.07.84s1.27-1.72.25-3.17l-7.73-11c-1-1.46-2.05-1.56-3.07-.84s-1.27,1.72-.25,3.17Z"/><path class="cls-1" d="M100.69,63.54l7.13,17.84c.66,1.65,1.63,2,2.78,1.49s1.64-1.35,1-3L104.45,62l3.44-1.37,7,17.61c1.48,3.7.47,6.55-3.09,8s-6.26.05-7.74-3.65L97.05,65Z"/><path class="cls-1" d="M130.91,81.52l-3.91.57-1.32-4.38-4.75.69,0,4.57-3.55.52.37-25.22,5.67-.82Zm-10-6.53,3.73-.54L121,62.25Z"/><path class="cls-1" d="M133.34,57l3.9.29-1.6,21.29,6.42.48-.27,3.55-10.32-.78Z"/><path class="cls-1" d="M148.18,58.78l3.81.88-5.62,24.26L142.56,83Z"/><path class="cls-1" d="M156.53,60.75l11.2,4.57-1.34,3.29-3.79-1.54-8.07,19.77-3.62-1.48L159,65.59,155.18,64Z"/><path class="cls-1" d="M166.41,83.89l5.46-16.49,3.36,2.34-4,11,8.94-7.6,3.06,2.14L169.62,86.12,164.9,92.9l-3.21-2.24Z"/></g></g></svg>